<svg width="50" height="50" xmlns="http://www.w3.org/2000/svg" fill-rule="evenodd" fill="#000000">

 <g>
  <title>Layer 1</title>
  <path stroke-opacity="0.75" fill="#7dde49" stroke="#7dde49" id="svg_1" d="m42.76953,6.23438l0.17188,0.46093l0.08203,0.23438l0.08203,0.22656l0.14844,0.46094l0.07031,0.23047l0.13281,0.45312l0.0625,0.22656l0.0625,0.22266l0.0586,0.22266l0.05468,0.22265l0.05078,0.21875l0.05079,0.22266l0.04687,0.21484l0.04688,0.21875l0.04296,0.21485l0.04297,0.21093l0.03907,0.21094l0.03515,0.21094l0.03516,0.20703l0.09375,0.60938l0.02344,0.19921l0.02734,0.19532l0.02344,0.19531l0.01953,0.19141l0.02344,0.1875l0.01562,0.1875l0.03125,0.36718l0.03516,0.52735l0.01562,0.33593l0.00781,0.16407l0.00391,0.16015l0.00391,0.15625l0.0039,0.15235l0,0.4414l-0.00781,0.27344l-0.00391,0.13281l-0.00781,0.25l-0.00781,0.1211l-0.01563,0.22656l-0.01562,0.21094l-0.01172,0.09765l-0.00781,0.09375l-0.01172,0.08985l-0.02344,0.16406l-0.01172,0.07422l-0.01172,0.07031l-0.01562,0.06641l0.10937,0.11718l0.10547,0.1211l0.10938,0.12109l0.10156,0.11719l0.10156,0.12109l0.10157,0.125l0.10156,0.1211l0.19531,0.25l0.09375,0.125l0.09766,0.1289l0.08984,0.125l0.09375,0.12891l0.08984,0.12891l0.08594,0.13281l0.08594,0.1289l0.17187,0.26563l0.08204,0.13672l0.07812,0.13281l0.08203,0.13672l0.07813,0.13672l0.07422,0.13672l0.14843,0.28125l0.07032,0.14062l0.07031,0.14453l0.0664,0.14063l0.06641,0.14453l0.06641,0.14844l0.0625,0.14453l0.0625,0.15234l0.05859,0.14844l0.05469,0.14844l0.05859,0.15234l0.05469,0.15234l0.15234,0.46875l0.04688,0.15625l0.04687,0.16016l0.04297,0.16016l0.03906,0.16406l0.04297,0.16406l0.03907,0.16406l0.03515,0.16407l0.03516,0.16797l0.03125,0.16796l0.03125,0.17188l0.05469,0.34375l0.02734,0.17578l0.02344,0.17578l0.01953,0.17578l0.01953,0.17969l0.01562,0.17969l0.03125,0.36719l0.00782,0.18359l0.01172,0.1875l0.00781,0.1875l0.0039,0.1875l0.00391,0.19531l0,0.39844l-0.00391,0.21094l-0.0039,0.20703l-0.00781,0.40625l-0.00782,0.20312l-0.00781,0.19922l-0.01172,0.19922l-0.03515,0.58594l-0.01954,0.1914l-0.01562,0.19141l-0.01563,0.1875l-0.01953,0.19141l-0.01953,0.18359l-0.02344,0.1875l-0.01953,0.17969l-0.02343,0.18359l-0.02735,0.17969l-0.02344,0.17969l-0.02734,0.17578l-0.03125,0.17578l-0.02734,0.17578l-0.0625,0.34375l-0.03516,0.16797l-0.03125,0.16797l-0.03516,0.16797l-0.03515,0.16406l-0.07813,0.32812l-0.07812,0.32032l-0.04297,0.16015l-0.08594,0.3125l-0.04297,0.15235l-0.14062,0.45703l-0.05078,0.14844l-0.04688,0.14843l-0.10156,0.28907l-0.05469,0.14453l-0.05469,0.14062l-0.05078,0.14063l-0.05468,0.14062l-0.17579,0.41016l-0.05468,0.13281l-0.0625,0.13281l-0.0586,0.13282l-0.1875,0.38671l-0.0625,0.125l-0.13281,0.25l-0.06641,0.1211l-0.0664,0.125l-0.06641,0.11719l-0.07031,0.12109l-0.14063,0.23437l-0.07031,0.11329l-0.07031,0.11718l-0.07422,0.11328l-0.07031,0.10938l-0.07422,0.11328l-0.07422,0.10938l-0.07422,0.10546l-0.07812,0.10938l-0.07422,0.10547l-0.07813,0.10547l-0.07812,0.10156l-0.07813,0.10547l-0.07812,0.10156l-0.08203,0.09766l-0.07813,0.10156l-0.16406,0.19531l-0.08203,0.09375l-0.08203,0.09766l-0.08203,0.09375l-0.08594,0.09375l-0.08203,0.08984l-0.25782,0.26953l-0.25781,0.25782l-0.08984,0.08203l-0.08985,0.08593l-0.08593,0.08204l-0.08985,0.08203l-0.08984,0.07812l-0.08984,0.08203l-0.08985,0.07813l-0.09375,0.07422l-0.08984,0.07812l-0.09375,0.07422l-0.08985,0.07422l-0.1875,0.14844l-0.09375,0.07031l-0.08984,0.07031l-0.09375,0.07031l-0.09766,0.07032l-0.28125,0.19922l-0.09765,0.0664l-0.09375,0.0625l-0.19531,0.125l-0.09375,0.0625l-0.09766,0.0586l-0.09766,0.0625l-0.19531,0.11718l-0.09766,0.05469l-0.09765,0.05859l-0.29297,0.16407l-0.10156,0.05468l-0.29297,0.15235l-0.10156,0.05078l-0.19922,0.09766l-0.19922,0.09375l-0.39844,0.17968l-0.19922,0.08594l-0.19922,0.08203l-0.19922,0.07813l-0.20312,0.07812l-0.19922,0.07422l-0.39844,0.14063l-0.19922,0.0664l-0.19531,0.0625l-0.19922,0.0625l-0.19922,0.0586l-0.39062,0.10937l-0.39063,0.10156l-0.1914,0.04688l-0.19531,0.04297l-0.1875,0.04297l-0.19141,0.04296l-0.1875,0.03907l-0.19141,0.03515l-0.36718,0.07032l-0.36719,0.0625l-0.17969,0.02734l-0.17578,0.02344l-0.17578,0.02734l-0.17578,0.02344l-0.34375,0.03906l-0.16797,0.01953l-0.16406,0.01953l-0.16407,0.01563l-0.16015,0.01562l-0.16016,0.01172l-0.15625,0.01172l-0.15234,0.01563l-0.15235,0.00781l-0.14843,0.01172l-0.14454,0.00781l-0.28125,0.01172l-0.26953,0.01172l-0.25781,0.00781l-0.24219,0.00781l-0.23047,0.00391l-0.21484,0l-0.20312,0.0039l-1.9961,0l-2.51953,0.00391l-2.51953,-0.00391l-1.99609,0l-0.20313,-0.0039l-0.21484,0l-0.23047,-0.00391l-0.24219,-0.00781l-0.25781,-0.00781l-0.26953,-0.01172l-0.28125,-0.01172l-0.14453,-0.00781l-0.14844,-0.01172l-0.15235,-0.00781l-0.15234,-0.01563l-0.15625,-0.01172l-0.16016,-0.01172l-0.16015,-0.01562l-0.16406,-0.01563l-0.16407,-0.01953l-0.16797,-0.01953l-0.34375,-0.03906l-0.17578,-0.02344l-0.17578,-0.02734l-0.17578,-0.02344l-0.17969,-0.02734l-0.36718,-0.0625l-0.36719,-0.07032l-0.19141,-0.03515l-0.1875,-0.03907l-0.1914,-0.04296l-0.1875,-0.04297l-0.19532,-0.04297l-0.1914,-0.04688l-0.39063,-0.10156l-0.39062,-0.10937l-0.19922,-0.0586l-0.19922,-0.0625l-0.19531,-0.0625l-0.19922,-0.0664l-0.39844,-0.14063l-0.19922,-0.07422l-0.20312,-0.07812l-0.19922,-0.07813l-0.19922,-0.08203l-0.19922,-0.08594l-0.39844,-0.17968l-0.19922,-0.09375l-0.19921,-0.09766l-0.10157,-0.05078l-0.29297,-0.15235l-0.10156,-0.05468l-0.29297,-0.16407l-0.09765,-0.05859l-0.09766,-0.05469l-0.19531,-0.11718l-0.09766,-0.0625l-0.09765,-0.0586l-0.09375,-0.0625l-0.19532,-0.125l-0.09375,-0.0625l-0.09765,-0.0664l-0.28125,-0.19922l-0.09766,-0.07032l-0.09375,-0.07031l-0.08984,-0.07031l-0.09375,-0.07031l-0.1875,-0.14844l-0.08985,-0.07422l-0.09375,-0.07422l-0.08984,-0.07812l-0.09375,-0.07422l-0.08984,-0.07813l-0.08985,-0.08203l-0.08984,-0.07812l-0.08985,-0.08203l-0.08593,-0.08204l-0.08985,-0.08593l-0.08984,-0.08203l-0.25781,-0.25782l-0.25782,-0.26953l-0.08203,-0.08984l-0.08593,-0.09375l-0.08204,-0.09375l-0.08203,-0.09766l-0.08203,-0.09375l-0.16406,-0.19531l-0.07813,-0.10156l-0.08203,-0.09766l-0.07812,-0.10156l-0.07813,-0.10547l-0.07812,-0.10156l-0.07813,-0.10547l-0.07422,-0.10547l-0.07812,-0.10938l-0.07422,-0.10546l-0.07422,-0.10938l-0.07422,-0.11328l-0.07031,-0.10938l-0.07422,-0.11328l-0.07031,-0.11718l-0.07031,-0.11329l-0.14063,-0.23437l-0.07031,-0.12109l-0.06641,-0.11719l-0.0664,-0.125l-0.06641,-0.1211l-0.13281,-0.25l-0.0625,-0.125l-0.1875,-0.38671l-0.0586,-0.13282l-0.0625,-0.13281l-0.05468,-0.13281l-0.17578,-0.41016l-0.05469,-0.14062l-0.05078,-0.14063l-0.05469,-0.14062l-0.05469,-0.14453l-0.10156,-0.28907l-0.04688,-0.14843l-0.05078,-0.14844l-0.14062,-0.45703l-0.04297,-0.15235l-0.08594,-0.3125l-0.04297,-0.16015l-0.07812,-0.32032l-0.07813,-0.32812l-0.03515,-0.16406l-0.03516,-0.16797l-0.03125,-0.16797l-0.03516,-0.16797l-0.0625,-0.34375l-0.02734,-0.17578l-0.03125,-0.17578l-0.02734,-0.17578l-0.02344,-0.17969l-0.02734,-0.17969l-0.02344,-0.18359l-0.01953,-0.17969l-0.02344,-0.1875l-0.01953,-0.18359l-0.01953,-0.19141l-0.01563,-0.1875l-0.01562,-0.19141l-0.01953,-0.1914l-0.03516,-0.58594l-0.01172,-0.19922l-0.00781,-0.19922l-0.00781,-0.20312l-0.00782,-0.40625l-0.0039,-0.20703l-0.00391,-0.21094l0,-0.39844l0.00391,-0.19531l0.0039,-0.1875l0.00782,-0.1875l0.01171,-0.1875l0.00782,-0.18359l0.03125,-0.36719l0.01562,-0.17969l0.01953,-0.17969l0.01953,-0.17578l0.02344,-0.17578l0.02735,-0.17578l0.05468,-0.34375l0.03125,-0.17188l0.03125,-0.16796l0.03516,-0.16797l0.03516,-0.16407l0.03906,-0.16406l0.04297,-0.16406l0.03906,-0.16406l0.04297,-0.16016l0.04687,-0.16016l0.04688,-0.15625l0.15234,-0.46875l0.05469,-0.15234l0.05859,-0.15234l0.05469,-0.14844l0.05859,-0.15234l0.0625,-0.14844l0.0625,-0.14453l0.06641,-0.14844l0.06641,-0.14453l0.0664,-0.14063l0.07032,-0.14453l0.07031,-0.14062l0.14844,-0.28125l0.07421,-0.13672l0.07813,-0.13672l0.08203,-0.13672l0.07813,-0.13281l0.08203,-0.13672l0.17187,-0.26563l0.08594,-0.1289l0.08594,-0.13281l0.08984,-0.12891l0.09375,-0.12891l0.08984,-0.125l0.09766,-0.1289l0.09375,-0.125l0.19531,-0.25l0.10157,-0.1211l0.10156,-0.125l0.10156,-0.12109l0.10156,-0.11719l0.10938,-0.12109l0.10547,-0.1211l0.10937,-0.11718l-0.01562,-0.07032l-0.01172,-0.07421l-0.01563,-0.08204l-0.01172,-0.08203l-0.01171,-0.08984l-0.01172,-0.09375l-0.01172,-0.09766l-0.00781,-0.10156l-0.01172,-0.10547l-0.00782,-0.10937l-0.00781,-0.11328l-0.00781,-0.11719l-0.00781,-0.1211l-0.00391,-0.125l-0.00781,-0.1289l-0.00391,-0.13281l-0.0039,-0.13672l0,-0.58203l0.0039,-0.15235l0.00391,-0.15625l0.0039,-0.16015l0.00782,-0.16407l0.0039,-0.16406l0.01172,-0.17187l0.00781,-0.16797l0.01172,-0.17578l0.03125,-0.35938l0.01563,-0.18359l0.01953,-0.1836l0.01953,-0.1875l0.01953,-0.1914l0.02344,-0.19141l0.02734,-0.19531l0.05469,-0.39844l0.03125,-0.19922l0.03516,-0.20312l0.07031,-0.41407l0.03906,-0.21093l0.08594,-0.42188l0.04687,-0.21484l0.04688,-0.21875l0.05078,-0.21485l0.05469,-0.21875l0.05469,-0.22265l0.05859,-0.22266l0.125,-0.44531l0.0625,-0.22656l0.14062,-0.45313l0.07422,-0.22656l0.15625,-0.46094l0.08203,-0.23047l0.17188,-0.46093l0.09375,-0.23438l0.05078,0.00781l0.06641,0.00782l0.08984,0.01562l0.11328,0.01953l0.14063,0.02735l0.16406,0.03125l0.1875,0.04296l0.10156,0.02344l0.10938,0.02344l0.11328,0.02734l0.12109,0.03125l0.125,0.03125l0.13281,0.03907l0.13282,0.03515l0.14453,0.04297l0.29687,0.08594l0.16016,0.05078l0.16406,0.05469l0.16797,0.05468l0.17188,0.0586l0.17968,0.05859l0.1836,0.06641l0.1914,0.0664l0.19141,0.07422l0.19922,0.07422l0.20312,0.08203l0.21094,0.08203l0.21094,0.08594l0.21875,0.08985l0.22265,0.09765l0.22657,0.09766l0.23437,0.10156l0.23438,0.10938l0.48437,0.22656l0.25,0.12109l0.25391,0.12891l0.52344,0.26172l0.26562,0.14062l0.26953,0.14453l0.27344,0.15235l0.28125,0.15625l0.28125,0.16015l0.28516,0.16407l0.29296,0.17187l0.29297,0.17578l0.29688,0.1836l0.30469,0.1875l0.30468,0.1914l0.15235,0.10156l0.15625,0.09766l0.15625,0.10156l0.3125,0.21094l0.16015,0.10547l0.15625,0.10937l0.16016,0.10938l0.14062,-0.03906l0.14063,-0.03516l0.15234,-0.03516l0.15235,-0.03125l0.16015,-0.03125l0.16407,-0.03125l0.16796,-0.03125l0.17188,-0.02734l0.35937,-0.05469l0.375,-0.04687l0.39063,-0.04688l0.19922,-0.01953l0.20312,-0.01562l0.20703,-0.01953l0.21094,-0.01563l0.21094,-0.01953l0.21094,-0.01172l0.21875,-0.01562l0.4375,-0.02344l0.21875,-0.00781l0.22265,-0.00782l0.22657,-0.00781l0.22265,-0.00781l0.45313,-0.00781l0.23047,-0.00391l0.22656,0l0.22656,-0.00391l0.22656,0.00391l0.22657,0l0.23046,0.00391l0.45313,0.00781l0.22266,0.00781l0.22656,0.00781l0.22265,0.00782l0.21875,0.00781l0.22266,0.01172l0.21484,0.01172l0.21875,0.01562l0.21094,0.01172l0.21094,0.01953l0.21094,0.01563l0.20703,0.01953l0.20312,0.01562l0.19922,0.01953l0.39063,0.04688l0.375,0.04687l0.35937,0.05469l0.17188,0.02734l0.16797,0.03125l0.16406,0.03125l0.16015,0.03125l0.15235,0.03516l0.15234,0.03125l0.14063,0.03516l0.13672,0.03906l0.16406,-0.10938l0.15625,-0.10937l0.16015,-0.10547l0.3125,-0.21094l0.15625,-0.10156l0.15625,-0.09766l0.15235,-0.10156l0.30469,-0.1914l0.30078,-0.1875l0.30078,-0.1836l0.29297,-0.17578l0.29297,-0.17187l0.28515,-0.16407l0.28125,-0.16015l0.28125,-0.15625l0.27344,-0.15235l0.26953,-0.14453l0.26563,-0.14062l0.52343,-0.26172l0.25391,-0.12891l0.25,-0.11719l0.24219,-0.11718l0.24218,-0.11328l0.46875,-0.21094l0.22657,-0.09766l0.22265,-0.09765l0.21875,-0.08985l0.21094,-0.08594l0.21094,-0.08203l0.20312,-0.08203l0.19922,-0.07422l0.19141,-0.07422l0.1914,-0.0664l0.1836,-0.06641l0.17969,-0.05859l0.17187,-0.0586l0.16797,-0.05468l0.16406,-0.05469l0.16016,-0.05078l0.15234,-0.04297l0.28906,-0.08594l0.13672,-0.03515l0.12891,-0.03907l0.125,-0.03125l0.12109,-0.03125l0.11328,-0.02734l0.10938,-0.02344l0.10156,-0.02344l0.1875,-0.04296l0.16406,-0.03125l0.14063,-0.02735l0.11719,-0.01953l0.08984,-0.01562l0.0625,-0.00782l0.05469,-0.00781l0.08984,0.23438zm-26.42578,18.62109l-0.22266,0.00391l-0.21875,0.0039l-0.21875,0.00781l-0.21484,0.01172l-0.42187,0.03125l-0.10547,0.01172l-0.10157,0.01172l-0.10546,0.01172l-0.20313,0.02344l-0.20312,0.03125l-0.09766,0.01172l-0.10156,0.01953l-0.09766,0.01562l-0.29297,0.0586l-0.09765,0.02343l-0.09375,0.01953l-0.09766,0.02735l-0.1875,0.04687l-0.09375,0.02735l-0.08984,0.02734l-0.09375,0.03125l-0.08985,0.02734l-0.08984,0.03125l-0.08985,0.03516l-0.08984,0.03125l-0.08984,0.03516l-0.08594,0.03515l-0.08984,0.03907l-0.17188,0.07812l-0.08203,0.03906l-0.08594,0.04297l-0.08203,0.04297l-0.32812,0.1875l-0.07813,0.05078l-0.08203,0.05078l-0.07813,0.05469l-0.07421,0.05469l-0.07813,0.05469l-0.07812,0.05859l-0.07422,0.05859l-0.22266,0.1875l-0.07031,0.06641l-0.08594,0.07812l-0.08594,0.08204l-0.08203,0.07812l-0.08203,0.08203l-0.15625,0.16406l-0.14844,0.16407l-0.07422,0.08593l-0.07421,0.08204l-0.07032,0.08593l-0.0664,0.08203l-0.19922,0.25782l-0.0625,0.08593l-0.0586,0.08985l-0.0625,0.08594l-0.05859,0.08593l-0.10937,0.17969l-0.0586,0.08984l-0.15234,0.26954l-0.04688,0.08984l-0.05078,0.09375l-0.04297,0.08984l-0.04687,0.08985l-0.04297,0.09375l-0.03906,0.09375l-0.04297,0.09375l-0.03906,0.09375l-0.03516,0.09375l-0.03906,0.09375l-0.03125,0.09375l-0.03516,0.09375l-0.03516,0.09765l-0.03125,0.09375l-0.02734,0.09766l-0.02734,0.09375l-0.05469,0.19531l-0.07031,0.29297l-0.0586,0.29297l-0.01562,0.10156l-0.01563,0.09766l-0.01562,0.10156l-0.01563,0.09766l-0.02343,0.20312l-0.00782,0.10156l-0.00781,0.09766l-0.01562,0.20313l-0.00782,0.20312l-0.0039,0.10547l-0.00391,0.10156l0,0.10156l0.00391,0.21485l0.0039,0.21094l0.00782,0.20703l0.00781,0.20312l0.01172,0.20313l0.01562,0.19922l0.01563,0.19531l0.01953,0.19531l0.02344,0.19141l0.02343,0.1875l0.02735,0.1875l0.03125,0.17968l0.03515,0.1836l0.03125,0.17578l0.03907,0.17578l0.03906,0.17188l0.02344,0.08593l0.01953,0.08594l0.02343,0.08203l0.02344,0.08594l0.04688,0.16406l0.02734,0.08203l0.02344,0.07813l0.02734,0.08203l0.02344,0.07812l0.02734,0.08204l0.02735,0.07812l0.03125,0.07813l0.02734,0.07812l0.03125,0.07422l0.02734,0.07422l0.03125,0.07812l0.0625,0.14844l0.03516,0.07422l0.03125,0.07031l0.03516,0.07422l0.03125,0.07031l0.03515,0.07032l0.03516,0.07421l0.03516,0.07032l0.03906,0.0664l0.03515,0.07032l0.03907,0.07031l0.19531,0.33203l0.04297,0.0625l0.03906,0.06641l0.21484,0.3125l0.04688,0.0625l0.04297,0.05859l0.04687,0.05859l0.04688,0.0625l0.04687,0.0586l0.09375,0.11328l0.09766,0.11719l0.09766,0.10937l0.10546,0.10938l0.10157,0.10937l0.10547,0.10547l0.10546,0.10156l0.11329,0.10156l0.10937,0.10157l0.11328,0.09765l0.35156,0.28125l0.1211,0.08985l0.375,0.25781l0.1289,0.08203l0.13282,0.08203l0.26562,0.15625l0.27344,0.14844l0.28125,0.14062l0.14453,0.07032l0.14063,0.0664l0.14843,0.06641l0.29688,0.125l0.15234,0.05859l0.15235,0.0625l0.46875,0.16407l0.16015,0.05468l0.16016,0.05078l0.16406,0.05079l0.32813,0.09375l0.16796,0.04687l0.16797,0.04297l0.17188,0.04297l0.16797,0.04297l0.17578,0.03906l0.17187,0.03906l0.17578,0.03906l0.17969,0.03516l0.17578,0.03516l0.17969,0.03515l0.36719,0.0625l0.17969,0.03125l0.375,0.05469l0.18359,0.02734l0.19141,0.02735l0.1875,0.02344l0.19531,0.02343l0.1914,0.02344l0.19141,0.01953l0.19531,0.02344l0.19922,0.01953l0.19531,0.01563l0.19922,0.01953l0.39844,0.03125l0.20313,0.01562l0.19921,0.01563l0.20704,0.01172l0.20312,0.01171l0.41406,0.02344l0.41407,0.01563l0.21093,0.01172l0.21094,0.00781l0.42188,0.01172l0.42968,0.01172l0.42969,0.00781l0.43359,0.0039l0.4375,0.00391l1.02344,0l0.4375,-0.00391l0.4336,-0.0039l0.42968,-0.00781l0.42578,-0.01172l0.42188,-0.01172l0.21094,-0.00781l0.20703,-0.01172l0.21094,-0.00782l0.20703,-0.00781l0.20312,-0.01172l0.20703,-0.01172l0.40625,-0.02343l0.20313,-0.01563l0.59765,-0.04687l0.19922,-0.01953l0.19532,-0.01563l0.19531,-0.01953l0.1914,-0.02344l0.19141,-0.01953l0.38281,-0.04687l0.1875,-0.02344l0.375,-0.05469l0.1836,-0.02734l0.1875,-0.02735l0.17968,-0.03125l0.1836,-0.03125l0.17969,-0.03125l0.17578,-0.03515l0.17968,-0.03516l0.17579,-0.03516l0.51562,-0.11718l0.17188,-0.04297l0.33593,-0.08594l0.49219,-0.14062l0.32031,-0.10157l0.46875,-0.16406l0.15235,-0.05469l0.14843,-0.0625l0.15235,-0.05859l0.14844,-0.0625l0.14453,-0.0625l0.28906,-0.13281l0.28125,-0.14063l0.13672,-0.07031l0.13672,-0.07422l0.13281,-0.07422l0.26562,-0.15625l0.12891,-0.08203l0.125,-0.08203l0.12891,-0.08594l0.24218,-0.17187l0.1211,-0.08985l0.23437,-0.1875l0.11328,-0.09375l0.11329,-0.09765l0.10937,-0.10157l0.21094,-0.20312l0.10547,-0.10547l0.20312,-0.21875l0.09766,-0.10937l0.09375,-0.11719l0.09375,-0.11328l0.09375,-0.1211l0.08984,-0.11718l0.21485,-0.3125l0.03906,-0.0625l0.04297,-0.06641l0.03906,-0.0625l0.19531,-0.33203l0.07031,-0.14063l0.03516,-0.0664l0.03516,-0.07032l0.03515,-0.07421l0.07032,-0.14063l0.03125,-0.07422l0.03125,-0.07031l0.03515,-0.07422l0.03125,-0.07422l0.02735,-0.07422l0.03125,-0.07812l0.03125,-0.07422l0.02734,-0.07422l0.02734,-0.07812l0.03125,-0.07813l0.02735,-0.07812l0.02343,-0.08204l0.02735,-0.07812l0.02344,-0.08203l0.02734,-0.07813l0.07031,-0.24609l0.04297,-0.16797l0.04297,-0.17187l0.03906,-0.17188l0.03906,-0.17578l0.03516,-0.17578l0.03125,-0.1836l0.02734,-0.17968l0.03125,-0.1875l0.02344,-0.1875l0.01953,-0.19141l0.03907,-0.39062l0.01171,-0.19922l0.02344,-0.40625l0.00781,-0.20703l0.00391,-0.21094l0,-0.31641l-0.00391,-0.10156l0,-0.10547l-0.0039,-0.10156l-0.00781,-0.10156l-0.00391,-0.10157l-0.00781,-0.10156l-0.00782,-0.09766l-0.03515,-0.30468l-0.01172,-0.09766l-0.01563,-0.10156l-0.01562,-0.09766l-0.01953,-0.10156l-0.01563,-0.09766l-0.01953,-0.09765l-0.02344,-0.09766l-0.01953,-0.09766l-0.02343,-0.09765l-0.02735,-0.09766l-0.02344,-0.09765l-0.02734,-0.09766l-0.03125,-0.09375l-0.02734,-0.09766l-0.03125,-0.09375l-0.03516,-0.09765l-0.03125,-0.09375l-0.07031,-0.1875l-0.11719,-0.28125l-0.08594,-0.1875l-0.04297,-0.08985l-0.04687,-0.08984l-0.04688,-0.09375l-0.20312,-0.35938l-0.10938,-0.17968l-0.05859,-0.08985l-0.11719,-0.17187l-0.0625,-0.08985l-0.0625,-0.08593l-0.0664,-0.08594l-0.0625,-0.08594l-0.07032,-0.08594l-0.0664,-0.08203l-0.07031,-0.08593l-0.07422,-0.08204l-0.07032,-0.08593l-0.07421,-0.08203l-0.23438,-0.2461l-0.08203,-0.08203l-0.08203,-0.07812l-0.08594,-0.08204l-0.08203,-0.07812l-0.07422,-0.06641l-0.07031,-0.0625l-0.07422,-0.0625l-0.07813,-0.0625l-0.14843,-0.11718l-0.23438,-0.16407l-0.07812,-0.05078l-0.08203,-0.05078l-0.07813,-0.04687l-0.24609,-0.14063l-0.08594,-0.04297l-0.08203,-0.04297l-0.34375,-0.15625l-0.08985,-0.03515l-0.08593,-0.03516l-0.08985,-0.03125l-0.08984,-0.03516l-0.08984,-0.03125l-0.09375,-0.02734l-0.08985,-0.03125l-0.1875,-0.05469l-0.1875,-0.04687l-0.09375,-0.02735l-0.09765,-0.01953l-0.09375,-0.02343l-0.29297,-0.0586l-0.10157,-0.01562l-0.09765,-0.01563l-0.30469,-0.04687l-0.30469,-0.03516l-0.21093,-0.02344l-0.10157,-0.00781l-0.10547,-0.00781l-0.10937,-0.00781l-0.10547,-0.00782l-0.21484,-0.01172l-0.21485,-0.00781l-0.22265,-0.0039l-0.21875,-0.00391l-0.22657,-0.00391l-0.22265,0.00391l-0.23047,0l-0.22656,0.00781l-0.23438,0.00391l-0.23437,0.01172l-0.23438,0.00781l-0.47656,0.02344l-0.24219,0.01562l-0.24219,0.01172l-0.24609,0.01563l-0.49609,0.03515l-1.00782,0.07031l-0.51562,0.03516l-0.51953,0.03516l-0.26563,0.01562l-0.26172,0.01563l-0.26562,0.01562l-0.26563,0.01172l-0.26953,0.01563l-0.26562,0.01171l-0.27344,0.00782l-0.26953,0.00781l-0.27344,0.00781l-0.54687,0.00781l-0.69532,0l-0.54687,-0.00781l-0.27344,-0.00781l-0.53906,-0.01563l-0.26953,-0.01171l-0.26953,-0.01563l-0.26563,-0.01172l-0.26562,-0.01562l-0.52344,-0.03125l-0.52344,-0.03516l-0.51172,-0.03516l-1.01172,-0.07031l-0.49609,-0.03515l-0.24219,-0.01563l-0.24218,-0.01172l-0.24219,-0.01562l-0.24219,-0.01172l-0.23828,-0.01172l-0.23438,-0.00781l-0.23437,-0.01172l-0.23047,-0.00391l-0.23047,-0.00781l-0.22656,0l-0.22656,-0.00391l-0.22266,0.00391zm16.6875,3.91797l0.08203,0.00781l0.08594,0.00391l0.16406,0.02343l0.07813,0.01563l0.08203,0.01953l0.07812,0.01953l0.08203,0.02735l0.07813,0.02343l0.07422,0.03125l0.07812,0.03125l0.07422,0.03516l0.07813,0.03516l0.07422,0.03906l0.07421,0.04297l0.07032,0.04297l0.14062,0.09375l0.07031,0.05078l0.07032,0.05468l0.13281,0.10938l0.06641,0.0625l0.125,0.125l0.125,0.13281l0.11718,0.14063l0.0586,0.07422l0.05468,0.07421l0.05469,0.07813l0.05078,0.07812l0.05469,0.08204l0.04688,0.08203l0.05078,0.08593l0.04687,0.08204l0.04688,0.08984l0.1289,0.26953l0.03907,0.09375l0.03906,0.09766l0.03906,0.09375l0.03516,0.09765l0.03125,0.10157l0.03125,0.09765l0.03125,0.10156l0.02734,0.10547l0.02734,0.10157l0.04688,0.21093l0.03906,0.21875l0.01953,0.10547l0.01172,0.11328l0.01563,0.10938l0.01172,0.11328l0.01562,0.22656l0.00391,0.11328l0.0039,0.11719l0,0.23047l-0.0039,0.11719l-0.00391,0.11328l-0.01562,0.22656l-0.01172,0.11328l-0.01563,0.11328l-0.01172,0.10938l-0.03906,0.21875l-0.01953,0.10547l-0.04688,0.21093l-0.02734,0.10547l-0.02734,0.10157l-0.0625,0.20312l-0.03125,0.09766l-0.03907,0.09765l-0.03515,0.09766l-0.07813,0.1875l-0.04297,0.08984l-0.04296,0.09375l-0.04297,0.08985l-0.09375,0.17187l-0.05078,0.08203l-0.04688,0.08594l-0.05469,0.07813l-0.05078,0.08203l-0.05469,0.07422l-0.05859,0.07421l-0.05469,0.07422l-0.05859,0.07422l-0.05859,0.06641l-0.0625,0.07031l-0.0625,0.06641l-0.125,0.125l-0.13282,0.11718l-0.0664,0.05469l-0.07032,0.05469l-0.07031,0.04687l-0.07031,0.05079l-0.07031,0.04687l-0.07032,0.04297l-0.07421,0.04297l-0.07422,0.03906l-0.07813,0.03516l-0.07422,0.03515l-0.07812,0.03125l-0.07422,0.02735l-0.07813,0.02734l-0.08203,0.02344l-0.07812,0.01953l-0.08203,0.01953l-0.07813,0.01563l-0.16406,0.02343l-0.08594,0.00782l-0.08203,0.0039l-0.16797,0l-0.08203,-0.0039l-0.08203,-0.00782l-0.16406,-0.02343l-0.08203,-0.01563l-0.08204,-0.01953l-0.07812,-0.01953l-0.07813,-0.02344l-0.15625,-0.05469l-0.07812,-0.03125l-0.07422,-0.03515l-0.07812,-0.03516l-0.07032,-0.03906l-0.14843,-0.08594l-0.07032,-0.04687l-0.07031,-0.05079l-0.07031,-0.04687l-0.07031,-0.05469l-0.06641,-0.05469l-0.06641,-0.05859l-0.0625,-0.05859l-0.0664,-0.0625l-0.0625,-0.0625l-0.0625,-0.06641l-0.0625,-0.07031l-0.0586,-0.06641l-0.11718,-0.14844l-0.10938,-0.14843l-0.05078,-0.08203l-0.05469,-0.07813l-0.04687,-0.08594l-0.05078,-0.08203l-0.09375,-0.17187l-0.04297,-0.08985l-0.04297,-0.09375l-0.04297,-0.08984l-0.07813,-0.1875l-0.10546,-0.29297l-0.0625,-0.20312l-0.02735,-0.10157l-0.02734,-0.10547l-0.04688,-0.21093l-0.01953,-0.10547l-0.03906,-0.21875l-0.01563,-0.10938l-0.02343,-0.22656l-0.02344,-0.33984l0,-0.11719l-0.00391,-0.11328l0.00391,-0.11719l0,-0.11719l0.02344,-0.33984l0.01172,-0.11328l0.01171,-0.10938l0.01563,-0.11328l0.01953,-0.10547l0.03906,-0.21875l0.04688,-0.21093l0.02734,-0.10157l0.02735,-0.10547l0.03125,-0.10156l0.03125,-0.09765l0.03515,-0.10157l0.03516,-0.09765l0.03515,-0.09375l0.03907,-0.09766l0.03906,-0.09375l0.12891,-0.26953l0.04687,-0.08984l0.04688,-0.08204l0.05078,-0.08593l0.04687,-0.08203l0.05469,-0.08204l0.05078,-0.07812l0.05469,-0.07813l0.05469,-0.07421l0.05859,-0.07422l0.11719,-0.14063l0.125,-0.13281l0.0625,-0.0625l0.0664,-0.0625l0.0625,-0.0625l0.13282,-0.10938l0.07031,-0.05468l0.07031,-0.05078l0.14063,-0.09375l0.14843,-0.08594l0.07032,-0.03906l0.07812,-0.03516l0.07422,-0.03516l0.15625,-0.0625l0.07812,-0.02343l0.07813,-0.02735l0.07812,-0.01953l0.08204,-0.01953l0.08203,-0.01563l0.16406,-0.02343l0.08203,-0.00391l0.08203,-0.00781l0.16797,0zm-15.89453,0l0.08203,0.00781l0.08203,0.00391l0.16406,0.02343l0.08204,0.01563l0.08203,0.01953l0.07812,0.01953l0.07813,0.02735l0.07812,0.02343l0.15625,0.0625l0.07422,0.03516l0.07813,0.03516l0.07031,0.03906l0.14844,0.08594l0.14062,0.09375l0.07031,0.05078l0.07032,0.05468l0.13281,0.10938l0.0664,0.0625l0.125,0.125l0.125,0.13281l0.11719,0.14063l0.0586,0.07422l0.05468,0.07421l0.05469,0.07813l0.05078,0.07812l0.05469,0.08204l0.04687,0.08203l0.05079,0.08593l0.04687,0.08204l0.04688,0.08984l0.1289,0.26953l0.03906,0.09375l0.03907,0.09766l0.03515,0.09375l0.03516,0.09765l0.03516,0.10157l0.03125,0.09765l0.03125,0.10156l0.02734,0.10547l0.02734,0.10157l0.04688,0.21093l0.03906,0.21875l0.01953,0.10547l0.01563,0.11328l0.01172,0.10938l0.01171,0.11328l0.02344,0.33984l0,0.11719l0.00391,0.11719l-0.00391,0.11328l0,0.11719l-0.02344,0.33984l-0.02343,0.22656l-0.01563,0.10938l-0.03906,0.21875l-0.01953,0.10547l-0.04688,0.21093l-0.02734,0.10547l-0.02734,0.10157l-0.0625,0.20312l-0.03125,0.09766l-0.03907,0.09765l-0.03515,0.09766l-0.07813,0.1875l-0.04297,0.08984l-0.04297,0.09375l-0.04296,0.08985l-0.09375,0.17187l-0.04688,0.08203l-0.05078,0.08594l-0.05078,0.07813l-0.05469,0.08203l-0.10937,0.14843l-0.11719,0.14844l-0.0586,0.06641l-0.0625,0.07031l-0.0625,0.06641l-0.125,0.125l-0.13281,0.11718l-0.0664,0.05469l-0.07032,0.05469l-0.07031,0.04687l-0.07031,0.05079l-0.07031,0.04687l-0.14844,0.08594l-0.07031,0.03906l-0.07813,0.03516l-0.07422,0.03515l-0.07812,0.03125l-0.15625,0.05469l-0.07813,0.02344l-0.07812,0.01953l-0.08203,0.01953l-0.08204,0.01563l-0.16406,0.02343l-0.08203,0.00782l-0.08203,0.0039l-0.16797,0l-0.08203,-0.0039l-0.08594,-0.00782l-0.16406,-0.02343l-0.07813,-0.01563l-0.08203,-0.01953l-0.07812,-0.01953l-0.08203,-0.02344l-0.07813,-0.02734l-0.07422,-0.02735l-0.07812,-0.03125l-0.07422,-0.03515l-0.07813,-0.03516l-0.07421,-0.03906l-0.07032,-0.04297l-0.07422,-0.04297l-0.07031,-0.04687l-0.07031,-0.05079l-0.07031,-0.04687l-0.07032,-0.05469l-0.0664,-0.05469l-0.13281,-0.11718l-0.125,-0.125l-0.0625,-0.06641l-0.0625,-0.07031l-0.0586,-0.06641l-0.05859,-0.07422l-0.05469,-0.07422l-0.05859,-0.07421l-0.05469,-0.07422l-0.05078,-0.08203l-0.05469,-0.07813l-0.04687,-0.08594l-0.05079,-0.08203l-0.09375,-0.17187l-0.04296,-0.08985l-0.04297,-0.09375l-0.04297,-0.08984l-0.07813,-0.1875l-0.03515,-0.09766l-0.03907,-0.09765l-0.03125,-0.09766l-0.0625,-0.20312l-0.02734,-0.10157l-0.02734,-0.10547l-0.04688,-0.21093l-0.01953,-0.10547l-0.03906,-0.21875l-0.01172,-0.10938l-0.01563,-0.11328l-0.01171,-0.11328l-0.01563,-0.22656l-0.00391,-0.11328l-0.0039,-0.11719l0,-0.23047l0.0039,-0.11719l0.00391,-0.11328l0.01563,-0.22656l0.01171,-0.11328l0.01563,-0.10938l0.01172,-0.11328l0.01953,-0.10547l0.03906,-0.21875l0.04688,-0.21093l0.02734,-0.10157l0.02734,-0.10547l0.03125,-0.10156l0.03125,-0.09765l0.03125,-0.10157l0.03907,-0.09765l0.03515,-0.09375l0.03907,-0.09766l0.03906,-0.09375l0.1289,-0.26953l0.04688,-0.08984l0.04687,-0.08204l0.05079,-0.08593l0.04687,-0.08203l0.05469,-0.08204l0.05078,-0.07812l0.05469,-0.07813l0.05859,-0.07421l0.05469,-0.07422l0.11719,-0.14063l0.125,-0.13281l0.125,-0.125l0.0664,-0.0625l0.13281,-0.10938l0.07032,-0.05468l0.07031,-0.05078l0.14062,-0.09375l0.07422,-0.04297l0.07032,-0.04297l0.07421,-0.03906l0.07813,-0.03516l0.07422,-0.03516l0.07812,-0.03125l0.07422,-0.03125l0.07813,-0.02343l0.08203,-0.02735l0.07812,-0.01953l0.08203,-0.01953l0.07813,-0.01563l0.16406,-0.02343l0.08594,-0.00391l0.08203,-0.00781l0.16797,0zm-8.54688,-20.34375l-0.0664,0.20703l-0.11719,0.41406l-0.05469,0.20313l-0.05468,0.20703l-0.05079,0.19922l-0.05078,0.20312l-0.04297,0.19922l-0.04687,0.20313l-0.04297,0.19531l-0.07812,0.39062l-0.03516,0.19532l-0.03516,0.1875l-0.03125,0.1914l-0.03125,0.1875l-0.02734,0.1875l-0.02734,0.17969l-0.02735,0.18359l-0.02344,0.17969l-0.03906,0.35156l-0.01953,0.17188l-0.01562,0.17187l-0.01563,0.16797l-0.01562,0.16406l-0.01172,0.16407l-0.01172,0.15625l-0.00781,0.16015l-0.01563,0.30469l-0.00391,0.14844l-0.0039,0.14453l-0.00781,0.14062l0,0.65625l0.0039,0.1211l0.00391,0.11719l0.0039,0.11328l0.00782,0.10937l0.0039,0.10156l0.00782,0.10157l0.0039,0.09765l0.00781,0.08985l0.00782,0.08593l0.01172,0.08204l0.00781,0.07421l0.00781,0.07032l0.00781,0.0664l0.00782,0.0586l0.01171,0.05468l0.00782,0.04297l0.19922,1.03907l-0.77735,0.85546l-0.09375,0.10547l-0.09375,0.10157l-0.08984,0.10937l-0.09375,0.10547l-0.08594,0.10547l-0.08984,0.10937l-0.08203,0.10547l-0.08594,0.10938l-0.2461,0.32812l-0.07812,0.10938l-0.07813,0.11328l-0.07421,0.10937l-0.14844,0.22657l-0.14063,0.22656l-0.0664,0.11719l-0.07032,0.11718l-0.0625,0.11328l-0.0664,0.11719l-0.0625,0.11719l-0.0625,0.12109l-0.0586,0.11719l-0.11718,0.24219l-0.05469,0.125l-0.05469,0.12109l-0.05469,0.125l-0.10156,0.25l-0.04687,0.12891l-0.05078,0.1289l-0.04297,0.12891l-0.04688,0.12891l-0.04297,0.13281l-0.03906,0.13281l-0.04297,0.13281l-0.03515,0.13672l-0.03907,0.13282l-0.03515,0.14062l-0.03516,0.13672l-0.03125,0.14062l-0.03125,0.14454l-0.02734,0.14062l-0.03125,0.14453l-0.02735,0.14844l-0.04687,0.29687l-0.01953,0.14844l-0.01953,0.15235l-0.03907,0.3125l-0.01172,0.15625l-0.01562,0.15625l-0.01172,0.16406l-0.00781,0.16015l-0.00781,0.16407l-0.00782,0.16797l-0.00781,0.33593l0,0.36719l0.00391,0.19531l0.0039,0.19141l0.00391,0.19531l0.00391,0.1875l0.01562,0.375l0.00781,0.1836l0.02344,0.36718l0.01172,0.17969l0.0625,0.70313l0.01953,0.17187l0.03906,0.33594l0.02344,0.16797l0.07031,0.49218l0.02735,0.16016l0.08203,0.46875l0.03125,0.15625l0.0625,0.30469l0.03125,0.14844l0.07031,0.29687l0.07031,0.28906l0.03907,0.14063l0.03515,0.14062l0.03906,0.14063l0.04297,0.13672l0.03907,0.13672l0.04296,0.13671l0.08594,0.26563l0.08594,0.25781l0.04687,0.12891l0.04688,0.125l0.04687,0.1289l0.04688,0.1211l0.05078,0.125l0.04688,0.12109l0.05078,0.1211l0.05078,0.11718l0.05469,0.11719l0.05078,0.11719l0.05078,0.11328l0.05469,0.11719l0.05468,0.11328l0.10938,0.21875l0.05859,0.10937l0.05469,0.10938l0.17578,0.3164l0.11719,0.20313l0.125,0.20312l0.0625,0.09766l0.05859,0.09766l0.06641,0.09375l0.0625,0.09765l0.0625,0.09375l0.0664,0.09375l0.0625,0.08985l0.06641,0.09375l0.06641,0.08984l0.0664,0.08594l0.00782,0.01172l-0.00391,-0.01563l-0.03906,-0.09375l-0.03516,-0.09375l-0.03516,-0.09765l-0.03125,-0.09375l-0.03515,-0.09766l-0.03125,-0.09766l-0.03125,-0.09375l-0.03125,-0.09765l-0.02735,-0.10157l-0.03125,-0.09765l-0.02734,-0.10156l-0.02734,-0.09766l-0.05469,-0.20313l-0.02344,-0.10546l-0.04687,-0.20313l-0.04688,-0.20703l-0.04297,-0.21094l-0.03515,-0.21094l-0.07032,-0.42968l-0.02734,-0.21875l-0.02734,-0.22266l-0.02344,-0.22266l-0.01953,-0.22656l-0.01563,-0.22656l-0.02343,-0.46094l-0.00782,-0.23437l-0.00781,-0.47657l0,-0.125l0.01172,-0.375l0.02344,-0.375l0.01172,-0.125l0.01171,-0.12109l0.01563,-0.125l0.01172,-0.125l0.01953,-0.125l0.01562,-0.12109l0.02344,-0.125l0.01953,-0.125l0.02344,-0.125l0.02344,-0.1211l0.02734,-0.125l0.02735,-0.12109l0.02734,-0.125l0.03516,-0.12109l0.03125,-0.125l0.10546,-0.36329l0.04297,-0.12109l0.03907,-0.12109l0.04296,-0.1211l0.04297,-0.11718l0.04688,-0.1211l0.05078,-0.11719l0.04687,-0.12109l0.05079,-0.11719l0.16406,-0.35156l0.05859,-0.11719l0.0625,-0.11328l0.0586,-0.11719l0.0664,-0.11328l0.0625,-0.11328l0.06641,-0.11328l0.14062,-0.22656l0.07032,-0.10938l0.07421,-0.10937l0.07422,-0.11328l0.07813,-0.10938l0.07812,-0.10547l0.08203,-0.10937l0.16407,-0.21094l0.17187,-0.21094l0.08985,-0.10547l0.08984,-0.10156l0.28125,-0.30469l0.09766,-0.09765l0.09765,-0.10156l0.20313,-0.19532l0.10547,-0.09765l0.09375,-0.08594l0.20312,-0.17188l0.10156,-0.08203l0.20313,-0.15625l0.10547,-0.07812l0.10547,-0.07422l0.10937,-0.07031l0.10547,-0.07032l0.10937,-0.07031l0.10547,-0.0664l0.11328,-0.0625l0.21875,-0.125l0.11329,-0.0586l0.33984,-0.16406l0.11328,-0.04688l0.11328,-0.05078l0.11328,-0.04687l0.11719,-0.04688l0.11719,-0.04297l0.11328,-0.04296l0.23437,-0.07813l0.35157,-0.10547l0.11718,-0.03125l0.1211,-0.03125l0.35156,-0.08203l0.12109,-0.02734l0.11719,-0.02344l0.1211,-0.01953l0.11718,-0.02344l0.11719,-0.01953l0.12109,-0.01953l0.1211,-0.01563l0.12109,-0.01953l0.11719,-0.01172l0.24219,-0.03125l0.11718,-0.01172l0.1211,-0.00781l0.24219,-0.02344l0.24218,-0.01562l0.48438,-0.02344l0.48437,-0.00781l0.2461,-0.00391l0.24218,0.00391l0.2461,0l0.73828,0.02344l0.24609,0.01172l0.25,0.01171l0.2461,0.01172l0.25,0.01563l0.25,0.01172l0.2539,0.01953l0.5,0.03125l1.01172,0.07031l1.02344,0.07031l0.77344,0.04688l1.03125,0.04687l0.26172,0.00782l0.25781,0.0039l0.52344,0.00781l0.66015,0l0.26172,-0.0039l0.51563,-0.00781l0.26171,-0.00782l0.51563,-0.02343l0.26172,-0.01172l0.25781,-0.01172l0.51563,-0.03125l0.2539,-0.01563l1.02344,-0.07031l1.01172,-0.07031l0.5039,-0.03125l0.25,-0.01953l0.25,-0.01172l0.25,-0.01563l0.25,-0.01172l0.2461,-0.01171l0.25,-0.01172l0.73828,-0.02344l0.24219,0l0.24609,-0.00391l0.24219,0.00391l0.24609,0.00391l0.24219,0.0039l0.24219,0.01172l0.23828,0.01172l0.125,0.00781l0.12109,0.00781l0.11719,0.01172l0.12109,0.01172l0.1211,0.00781l0.12109,0.01563l0.11719,0.01172l0.36328,0.04687l0.11719,0.01563l0.12109,0.01953l0.11719,0.01953l0.12109,0.02344l0.11719,0.01953l0.12109,0.02734l0.11719,0.02344l0.11719,0.02734l0.12109,0.02735l0.11719,0.02734l0.23437,0.0625l0.35157,0.10547l0.23437,0.07813l0.11719,0.04296l0.11328,0.04297l0.11719,0.04688l0.11328,0.04687l0.11719,0.05078l0.22656,0.10157l0.11328,0.05468l0.10938,0.05469l0.11328,0.0586l0.10937,0.0625l0.11328,0.0625l0.10938,0.0625l0.10937,0.0664l0.10938,0.07031l0.21094,0.14063l0.10546,0.07422l0.10547,0.07812l0.10157,0.07813l0.10546,0.07812l0.10157,0.08203l0.10156,0.08594l0.09766,0.08594l0.09375,0.08594l0.10937,0.09765l0.10156,0.09766l0.09766,0.09766l0.09766,0.10156l0.09765,0.09765l0.09766,0.10157l0.09375,0.10156l0.17969,0.20312l0.08984,0.10547l0.25781,0.31641l0.08203,0.10547l0.07813,0.10937l0.07812,0.10547l0.07813,0.10938l0.07422,0.11328l0.14843,0.21875l0.06641,0.11328l0.07031,0.11328l0.13282,0.22656l0.0625,0.11328l0.0625,0.11719l0.05859,0.11328l0.05859,0.11719l0.16407,0.35156l0.05078,0.11719l0.05078,0.12109l0.04687,0.11719l0.04688,0.1211l0.04297,0.11718l0.08593,0.24219l0.03907,0.12109l0.10547,0.36329l0.03515,0.125l0.03125,0.12109l0.02735,0.125l0.02734,0.12109l0.02734,0.125l0.02344,0.1211l0.04688,0.25l0.01953,0.125l0.01562,0.12109l0.01953,0.125l0.01563,0.125l0.01172,0.125l0.01172,0.12109l0.01171,0.125l0.02344,0.375l0.01172,0.375l0,0.36329l-0.00391,0.23828l-0.01171,0.23047l-0.00782,0.23437l-0.01562,0.22656l-0.01563,0.23047l-0.01953,0.22266l-0.04687,0.44531l-0.02735,0.21484l-0.03515,0.21875l-0.03125,0.21485l-0.03907,0.21094l-0.03906,0.20703l-0.09375,0.41406l-0.05078,0.20312l-0.05078,0.19922l-0.05469,0.19532l-0.03125,0.10156l-0.125,0.39062l-0.03515,0.09375l-0.03125,0.09375l-0.03516,0.09375l-0.03125,0.08203l0.04687,-0.05859l0.06641,-0.08984l0.06641,-0.09375l0.0625,-0.08985l0.0664,-0.09375l0.0625,-0.09375l0.0625,-0.09765l0.06641,-0.09375l0.05859,-0.09766l0.0625,-0.09766l0.125,-0.20312l0.11719,-0.20313l0.17578,-0.3164l0.05469,-0.10938l0.05859,-0.10937l0.10938,-0.21875l0.05469,-0.11328l0.05468,-0.11719l0.05078,-0.11328l0.05079,-0.11719l0.05468,-0.11719l0.05078,-0.11718l0.05079,-0.1211l0.04687,-0.12109l0.05078,-0.125l0.04688,-0.1211l0.04687,-0.1289l0.04688,-0.125l0.04687,-0.12891l0.08594,-0.25781l0.08594,-0.26563l0.04297,-0.13671l0.03906,-0.13672l0.04297,-0.13672l0.03906,-0.14063l0.03516,-0.14062l0.03906,-0.14063l0.07031,-0.28906l0.07031,-0.29687l0.03125,-0.14844l0.0625,-0.30469l0.03125,-0.15625l0.08203,-0.46875l0.02735,-0.16016l0.07031,-0.49218l0.02344,-0.16797l0.03906,-0.33594l0.01953,-0.17187l0.0625,-0.70313l0.01172,-0.17969l0.02344,-0.36718l0.00781,-0.1836l0.01563,-0.375l0.0039,-0.1875l0.00391,-0.19531l0.0039,-0.19141l0.00391,-0.19531l0,-0.36719l-0.00781,-0.33593l-0.00781,-0.16797l-0.00782,-0.16407l-0.00781,-0.16015l-0.01172,-0.16406l-0.01562,-0.15625l-0.01172,-0.15625l-0.03906,-0.3125l-0.01954,-0.15235l-0.01953,-0.14844l-0.04687,-0.29687l-0.02735,-0.14844l-0.03125,-0.14453l-0.02734,-0.14062l-0.03125,-0.14454l-0.03125,-0.14062l-0.03516,-0.13672l-0.03515,-0.14062l-0.03906,-0.13282l-0.03516,-0.13672l-0.04297,-0.13281l-0.03906,-0.13281l-0.04297,-0.13281l-0.04688,-0.12891l-0.04296,-0.12891l-0.05079,-0.1289l-0.04687,-0.12891l-0.10156,-0.25l-0.05469,-0.125l-0.05469,-0.12109l-0.05469,-0.125l-0.11718,-0.24219l-0.0586,-0.11719l-0.0625,-0.12109l-0.0625,-0.11719l-0.0664,-0.11719l-0.0625,-0.11328l-0.07032,-0.11718l-0.0664,-0.11719l-0.14063,-0.22656l-0.14843,-0.22657l-0.07422,-0.10937l-0.07813,-0.11328l-0.07812,-0.10938l-0.2461,-0.32812l-0.08593,-0.10938l-0.08204,-0.10547l-0.08984,-0.10937l-0.08594,-0.10547l-0.09375,-0.10547l-0.08984,-0.10937l-0.09375,-0.10157l-0.09375,-0.10547l-0.77734,-0.85546l0.19921,-1.03516l0.00782,-0.03516l0.00781,-0.04687l0.00781,-0.05469l0.00781,-0.0625l0.00782,-0.06641l0.00781,-0.07031l0.01562,-0.16406l0.00782,-0.08984l0.0039,-0.09375l0.00782,-0.09766l0.0039,-0.10156l0.00781,-0.10938l0.00782,-0.22656l0,-0.12109l0.0039,-0.125l0,-0.39454l-0.0039,-0.13671l-0.00782,-0.28907l-0.0039,-0.14843l-0.00781,-0.15235l-0.00782,-0.15625l-0.01172,-0.15625l-0.00781,-0.16406l-0.01172,-0.16406l-0.01562,-0.16407l-0.03125,-0.34375l-0.01953,-0.17187l-0.01953,-0.17578l-0.01954,-0.17969l-0.02343,-0.18359l-0.02344,-0.17969l-0.05469,-0.375l-0.03125,-0.19141l-0.03515,-0.1875l-0.03125,-0.19531l-0.03516,-0.19531l-0.03906,-0.19531l-0.03907,-0.19922l-0.08593,-0.39844l-0.04688,-0.20313l-0.15234,-0.60937l-0.0586,-0.20703l-0.05468,-0.20703l-0.0625,-0.21094l-0.0625,-0.20703l-0.02735,-0.08594l-0.07422,0.01953l-0.13671,0.04297l-0.14454,0.04297l-0.14843,0.05078l-0.3125,0.10156l-0.16407,0.0586l-0.17187,0.05859l-0.17188,0.0625l-0.17968,0.06641l-0.1836,0.07031l-0.1875,0.07422l-0.19531,0.07812l-0.19922,0.07813l-0.20312,0.08594l-0.20703,0.08984l-0.21485,0.08984l-0.21484,0.09766l-0.22266,0.10156l-0.22656,0.10547l-0.23047,0.10938l-0.23437,0.11328l-0.48438,0.24218l-0.24609,0.12891l-0.25391,0.13281l-0.25781,0.13672l-0.25781,0.14063l-0.26563,0.14843l-0.26953,0.15235l-0.26953,0.15625l-0.27735,0.16406l-0.28125,0.16797l-0.57031,0.35156l-0.29297,0.1875l-0.14843,0.09375l-0.14454,0.09375l-0.15234,0.10156l-0.14844,0.09766l-0.15234,0.09766l-0.15234,0.10547l-0.14844,0.10156l-0.91406,0.625l-1.00782,-0.26953l-0.10937,-0.02735l-0.1211,-0.02734l-0.125,-0.02734l-0.13281,-0.02735l-0.14062,-0.02344l-0.14453,-0.02734l-0.3125,-0.04687l-0.16407,-0.02735l-0.16797,-0.01953l-0.17187,-0.02344l-0.17578,-0.01953l-0.36719,-0.03906l-0.19141,-0.01953l-0.1914,-0.01563l-0.19531,-0.01562l-0.19922,-0.01563l-0.19922,-0.01172l-0.20703,-0.01171l-0.20703,-0.01563l-0.20704,-0.00781l-0.21093,-0.01172l-0.42188,-0.01563l-0.21484,-0.0039l-0.21875,-0.00391l-0.21485,-0.0039l-0.21875,-0.00391l-0.21484,0l-0.21875,-0.00391l-0.21875,0.00391l-0.21484,0l-0.21875,0.00391l-0.21485,0.0039l-0.21875,0.00391l-0.21484,0.0039l-0.42188,0.01563l-0.21093,0.01172l-0.20703,0.00781l-0.20704,0.01563l-0.40625,0.02343l-0.19921,0.01563l-0.19532,0.01562l-0.1914,0.01563l-0.19141,0.01953l-0.36719,0.03906l-0.17578,0.01953l-0.17187,0.02344l-0.16797,0.01953l-0.16406,0.02344l-0.15625,0.02734l-0.15625,0.02344l-0.14454,0.02734l-0.14062,0.02344l-0.13281,0.02735l-0.125,0.02734l-0.1211,0.02734l-0.10937,0.02735l-1.00781,0.26953l-0.91407,-0.625l-0.15234,-0.10547l-0.14844,-0.10156l-0.15234,-0.09766l-0.14844,-0.10156l-0.15234,-0.09766l-0.14453,-0.09375l-0.14844,-0.09375l-0.29297,-0.1875l-0.28906,-0.17969l-0.28125,-0.17187l-0.28125,-0.16797l-0.27735,-0.16406l-0.26953,-0.15625l-0.26953,-0.15235l-0.26562,-0.14843l-0.26172,-0.14063l-0.25391,-0.13672l-0.25391,-0.13281l-0.24609,-0.12891l-0.24609,-0.12109l-0.23828,-0.12109l-0.23438,-0.11328l-0.23047,-0.10938l-0.22656,-0.10547l-0.22266,-0.10156l-0.21484,-0.09766l-0.21484,-0.08984l-0.20704,-0.08984l-0.20312,-0.08594l-0.19922,-0.07813l-0.19141,-0.07812l-0.1914,-0.07422l-0.1836,-0.07031l-0.17968,-0.06641l-0.17188,-0.0625l-0.17187,-0.05859l-0.16407,-0.0586l-0.3125,-0.10156l-0.14843,-0.05078l-0.28125,-0.08594l-0.07813,-0.01953l-0.02344,0.08594zm8.44922,22.34375l-0.01562,0l-0.01172,0.0039l-0.01563,0l-0.01171,0.00391l-0.01172,0l-0.04688,0.01172l-0.01562,0.00781l-0.01563,0.00391l-0.01562,0.00781l-0.01953,0.00781l-0.03907,0.02344l-0.02343,0.01172l-0.01954,0.01172l-0.07031,0.04687l-0.02734,0.01953l-0.02344,0.02344l-0.08203,0.07031l-0.02734,0.03125l-0.0586,0.0586l-0.05469,0.07031l-0.03125,0.03516l-0.02734,0.03906l-0.02734,0.04297l-0.02735,0.03906l-0.03125,0.04688l-0.02734,0.04296l-0.02734,0.04688l-0.05469,0.10156l-0.02344,0.05078l-0.02734,0.05469l-0.02344,0.05469l-0.07031,0.17578l-0.02344,0.0625l-0.03906,0.125l-0.01953,0.06641l-0.01954,0.0625l-0.01562,0.07031l-0.01563,0.0664l-0.03125,0.14063l-0.01171,0.07422l-0.01172,0.07031l-0.01172,0.07422l-0.00781,0.07422l-0.00782,0.07812l-0.0039,0.07422l-0.00782,0.07813l-0.0039,0.07812l0,0.31641l0.0039,0.07812l0.00782,0.07813l0.0039,0.07422l0.00782,0.07812l0.00781,0.07422l0.02344,0.14844l0.01171,0.07031l0.04688,0.21094l0.01562,0.0664l0.01954,0.06641l0.01953,0.0625l0.01953,0.06641l0.01953,0.0625l0.02344,0.0625l0.04687,0.11718l0.04688,0.10938l0.05468,0.10937l0.02344,0.05079l0.08203,0.14062l0.03125,0.04297l0.02735,0.04297l0.02734,0.03906l0.03125,0.03906l0.02734,0.03907l0.02735,0.03515l0.02734,0.03125l0.03125,0.03125l0.02735,0.03125l0.05468,0.05469l0.05469,0.04687l0.02344,0.01954l0.02734,0.01953l0.02344,0.01953l0.04687,0.03125l0.01954,0.01172l0.02343,0.01172l0.01953,0.01171l0.03907,0.01563l0.03125,0.01562l0.01562,0.00391l0.01563,0.00781l0.01562,0.00391l0.01563,0l0.01172,0.00391l0.01171,0l0.01563,0.0039l0.08203,0l0.01172,-0.0039l0.01562,0l0.01172,-0.00391l0.0625,-0.01563l0.03125,-0.01562l0.03907,-0.01563l0.01953,-0.01171l0.02343,-0.01172l0.01954,-0.01172l0.04687,-0.03125l0.02344,-0.01953l0.02734,-0.01953l0.02344,-0.01954l0.05469,-0.04687l0.05468,-0.05469l0.05469,-0.0625l0.03125,-0.03125l0.02735,-0.03515l0.02734,-0.03907l0.03125,-0.03906l0.02734,-0.03906l0.02735,-0.04297l0.03125,-0.04297l0.08203,-0.14062l0.02734,-0.05079l0.02344,-0.05468l0.02734,-0.05469l0.02344,-0.05469l0.02344,-0.05859l0.02734,-0.05469l0.01953,-0.05859l0.02344,-0.0625l0.01953,-0.0625l0.02344,-0.06641l0.01562,-0.0625l0.01954,-0.06641l0.01562,-0.07031l0.01563,-0.0664l0.03125,-0.14063l0.01171,-0.07031l0.02344,-0.14844l0.00781,-0.07422l0.00782,-0.07812l0.0039,-0.07422l0.00782,-0.07813l0.0039,-0.07812l0,-0.07813l0.00391,-0.07812l-0.00391,-0.08203l0,-0.07813l-0.0039,-0.07812l-0.00782,-0.07422l-0.0039,-0.07813l-0.00782,-0.07422l-0.00781,-0.07812l-0.01172,-0.07422l-0.01172,-0.07031l-0.01171,-0.07422l-0.03125,-0.14063l-0.03125,-0.13281l-0.01954,-0.0664l-0.01562,-0.06641l-0.02344,-0.0625l-0.01953,-0.0625l-0.02344,-0.0625l-0.01953,-0.05859l-0.02734,-0.0586l-0.02344,-0.05859l-0.02344,-0.05469l-0.02734,-0.05469l-0.02344,-0.05078l-0.05469,-0.10156l-0.02734,-0.04688l-0.02734,-0.04296l-0.03125,-0.04297l-0.05469,-0.08594l-0.03125,-0.03906l-0.05469,-0.07032l-0.03125,-0.03515l-0.02734,-0.03125l-0.08203,-0.08203l-0.05469,-0.04688l-0.02344,-0.02344l-0.02734,-0.01953l-0.07031,-0.04687l-0.01954,-0.01172l-0.02343,-0.01172l-0.03907,-0.02344l-0.01953,-0.00781l-0.01562,-0.00781l-0.03125,-0.00781l-0.01953,-0.00782l-0.01172,-0.0039l-0.01563,-0.00391l-0.01172,0l-0.01562,-0.00391l-0.01172,0l-0.01562,-0.0039l-0.03907,0zm15.89453,0l-0.01171,0l-0.01563,0.0039l-0.01172,0l-0.01172,0.00391l-0.01562,0l-0.01563,0.00391l-0.01172,0.0039l-0.01562,0.00782l-0.01953,0.0039l-0.01563,0.00391l-0.01562,0.00781l-0.01953,0.00781l-0.03907,0.02344l-0.02343,0.01172l-0.01953,0.01172l-0.07032,0.04687l-0.02734,0.01953l-0.02344,0.02344l-0.05469,0.04688l-0.08203,0.08203l-0.02734,0.03125l-0.03125,0.03515l-0.02734,0.03516l-0.02735,0.03906l-0.03125,0.03516l-0.05469,0.08594l-0.03125,0.04297l-0.02734,0.04296l-0.02734,0.05079l-0.02735,0.04687l-0.02734,0.05078l-0.02344,0.05078l-0.02734,0.05469l-0.02344,0.05469l-0.02344,0.05859l-0.02734,0.0586l-0.01953,0.05859l-0.02344,0.0625l-0.01953,0.0625l-0.02344,0.0625l-0.01562,0.06641l-0.01953,0.0664l-0.03125,0.13281l-0.03125,0.14063l-0.01172,0.07422l-0.01172,0.07031l-0.01172,0.07422l-0.00781,0.07422l-0.00782,0.07812l-0.0039,0.07422l-0.00781,0.07813l-0.00391,0.07812l0,0.07813l-0.00391,0.08203l0.00391,0.07812l0,0.07813l0.00391,0.07812l0.00781,0.07813l0.0039,0.07422l0.00782,0.07812l0.00781,0.07422l0.02344,0.14844l0.01172,0.07031l0.03125,0.14063l0.01562,0.0664l0.01563,0.07031l0.01953,0.06641l0.01562,0.0625l0.02344,0.06641l0.01953,0.0625l0.02344,0.05859l0.01953,0.0625l0.02734,0.05469l0.02344,0.05859l0.02344,0.05469l0.02734,0.05469l0.02344,0.05468l0.02734,0.04688l0.02735,0.05078l0.05468,0.09375l0.03125,0.04297l0.02735,0.04297l0.02734,0.03906l0.03125,0.03906l0.02735,0.03907l0.02734,0.03515l0.03125,0.03125l0.05469,0.0625l0.05468,0.05469l0.05469,0.04687l0.02344,0.01954l0.02734,0.01953l0.02344,0.01953l0.04688,0.03125l0.01953,0.01172l0.02343,0.01172l0.01954,0.01171l0.03906,0.01563l0.01562,0.00781l0.01953,0.00781l0.03125,0.00782l0.01172,0.0039l0.03125,0.00782l0.01172,0l0.01172,0.0039l0.08203,0l0.01563,-0.0039l0.01172,0l0.01171,-0.00391l0.01563,0l0.01562,-0.00391l0.01563,-0.00781l0.01562,-0.00391l0.03125,-0.01562l0.03907,-0.01563l0.01953,-0.01171l0.02344,-0.01172l0.01953,-0.01172l0.04687,-0.03125l0.02344,-0.01953l0.02734,-0.01953l0.02344,-0.01954l0.05469,-0.04687l0.05469,-0.05469l0.02734,-0.03125l0.03125,-0.03125l0.02734,-0.03125l0.02735,-0.03515l0.02734,-0.03907l0.03125,-0.03906l0.02734,-0.03906l0.02735,-0.04297l0.03125,-0.04297l0.08203,-0.14062l0.02344,-0.05079l0.05468,-0.10937l0.04688,-0.10938l0.04687,-0.11718l0.02344,-0.0625l0.01953,-0.0625l0.01953,-0.06641l0.01954,-0.0625l0.01953,-0.06641l0.01562,-0.0664l0.04688,-0.21094l0.01172,-0.07031l0.02343,-0.14844l0.00782,-0.07422l0.00781,-0.07812l0.0039,-0.07422l0.00782,-0.07813l0.0039,-0.07812l0,-0.31641l-0.00781,-0.15625l-0.00781,-0.07422l-0.00781,-0.07812l-0.00782,-0.07422l-0.01172,-0.07422l-0.01171,-0.07031l-0.01172,-0.07422l-0.01563,-0.07031l-0.01172,-0.07032l-0.01562,-0.0664l-0.01953,-0.07031l-0.01953,-0.0625l-0.01954,-0.06641l-0.03906,-0.125l-0.02344,-0.0625l-0.02343,-0.05859l-0.01953,-0.0586l-0.02735,-0.05859l-0.02344,-0.05469l-0.02734,-0.05469l-0.02344,-0.05078l-0.05468,-0.10156l-0.02735,-0.04688l-0.02734,-0.04296l-0.03125,-0.04688l-0.02735,-0.03906l-0.02734,-0.04297l-0.02734,-0.03906l-0.03125,-0.03516l-0.05469,-0.07031l-0.05859,-0.0586l-0.02735,-0.03125l-0.05469,-0.04687l-0.02343,-0.02344l-0.02735,-0.02344l-0.02734,-0.01953l-0.07031,-0.04687l-0.01953,-0.01172l-0.02344,-0.01172l-0.03906,-0.02344l-0.01954,-0.00781l-0.01562,-0.00781l-0.01563,-0.00391l-0.01562,-0.00781l-0.04688,-0.01172l-0.01171,0l-0.01172,-0.00391l-0.01563,0l-0.01172,-0.0039l-0.04297,0z" fill-rule="evenodd"/>
 </g>
</svg>